# xmcd
#
# Track frame offsets:
#  150
#  10593
#  21514
#  32257
#  44928
#  61357
#  80706
#  93124
#  109096
#  122014
#  137352
#  148543
#  160342
#  168270
#  182384
#
# Disc length: 2576 seconds
#
# Revision: 0
# Processed by: cddbd v1.5.1PL2 Copyright (c) Steve Scherf et al.
# Submitted via: AltoMP3_Maker 3.0
#
DISCID=bb0a0e0f
DTITLE=Greg Becker with the Homestead Pickers - Greg Becker - 'After All These Years'
DYEAR=1900
DGENRE=
TTITLE0=Shootin Creek - Red Fox
TTITLE1=Off She Goes - Haste To the Wedding
TTITLE2=Isom
TTITLE3=Southern Schottisch
TTITLE4=Quince Dillon's High D - Mississippi Sawyer
TTITLE5=Off To California - Midnight On The Water
TTITLE6=Hey What!
TTITLE7=Cuckoo Waltz
TTITLE8=Temperance Reel - Pretty Little Dog
TTITLE9=Dulcimer Reel - Dancing Bear
TTITLE10=My Own Home Waltz
TTITLE11=The Sweeps Hornpipe
TTITLE12=Flying Cloud Cotillion
TTITLE13=Flowers of the Forest
TTITLE14=Bundle And Go - Drops Of Brandy
EXTD=
EXTT0=
EXTT1=
EXTT2=
EXTT3=
EXTT4=
EXTT5=
EXTT6=
EXTT7=
EXTT8=
EXTT9=
EXTT10=
EXTT11=
EXTT12=
EXTT13=
EXTT14=
PLAYORDER=
